<svg width="192" height="34" viewBox="0 0 192 34" fill="none" xmlns="http://www.w3.org/2000/svg">
<g clip-path="url(#clip0_5_34635)">
<path d="M0.75 4.86525V11.6182C0.75 13.6749 3.25611 14.7719 4.78763 13.3322L12.0971 6.5792C13.6983 5.1052 12.654 2.5 10.4612 2.5H3.15169C1.82902 2.5 0.75 3.56265 0.75 4.86525Z" fill="#4F9CF9"/>
<path d="M35.3482 2.5H28.0387C25.8807 2.5 24.8017 5.1052 26.4028 6.5792L33.7123 13.3322C35.2438 14.7376 37.7499 13.6749 37.7499 11.6182V4.86525C37.7499 3.56265 36.6709 2.5 35.3482 2.5Z" fill="#4F9CF9"/>
<path d="M20.9033 18.9884L33.7124 30.8489C35.2439 32.2543 37.75 31.1917 37.75 29.1349V22.3134C37.75 21.6621 37.4715 21.0451 36.9842 20.5995L20.9033 5.68814C19.9635 4.83117 18.5365 4.83117 17.5967 5.68814L1.51576 20.5995C1.02846 21.0451 0.75 21.6621 0.75 22.3134V29.1349C0.75 31.1917 3.25611 32.2886 4.78763 30.8489L17.5967 18.9884C18.5365 18.1314 19.9635 18.1314 20.9033 18.9884Z" fill="#4F9CF9"/>
</g>
<path d="M52.4531 27L48.2969 11.7273H52.5824L54.9489 21.9886H55.0881L57.554 11.7273H61.7599L64.2656 21.929H64.3949L66.7216 11.7273H70.9972L66.8509 27H62.3665L59.7415 17.3949H59.5526L56.9276 27H52.4531ZM77.4925 18.1705V27H73.2567V6.63636H77.3732V14.4219H77.5522C77.8969 13.5204 78.4537 12.8144 79.2227 12.304C79.9916 11.7869 80.9561 11.5284 82.1161 11.5284C83.1767 11.5284 84.1014 11.7604 84.8903 12.2244C85.6857 12.6818 86.3022 13.3414 86.7397 14.2031C87.1838 15.0582 87.4026 16.0824 87.396 17.2756V27H83.1602V18.0312C83.1668 17.09 82.9281 16.3575 82.4442 15.8338C81.967 15.3101 81.2975 15.0483 80.4357 15.0483C79.859 15.0483 79.3486 15.1709 78.9045 15.4162C78.467 15.6615 78.1223 16.0194 77.8704 16.4901C77.6251 16.9541 77.4992 17.5142 77.4925 18.1705ZM90.7294 27V11.7273H94.9652V27H90.7294ZM92.8572 9.75852C92.2275 9.75852 91.6873 9.54972 91.2365 9.1321C90.7924 8.70786 90.5703 8.20076 90.5703 7.61079C90.5703 7.02746 90.7924 6.52699 91.2365 6.10938C91.6873 5.68513 92.2275 5.47301 92.8572 5.47301C93.487 5.47301 94.0239 5.68513 94.468 6.10938C94.9188 6.52699 95.1442 7.02746 95.1442 7.61079C95.1442 8.20076 94.9188 8.70786 94.468 9.1321C94.0239 9.54972 93.487 9.75852 92.8572 9.75852ZM106.482 11.7273V14.9091H97.2844V11.7273H106.482ZM99.3725 8.06818H103.608V22.3068C103.608 22.6979 103.668 23.0028 103.787 23.2216C103.907 23.4337 104.072 23.5829 104.284 23.669C104.503 23.7552 104.755 23.7983 105.04 23.7983C105.239 23.7983 105.438 23.7817 105.637 23.7486C105.836 23.7088 105.988 23.679 106.094 23.6591L106.76 26.8111C106.548 26.8774 106.25 26.9536 105.865 27.0398C105.481 27.1326 105.014 27.1889 104.463 27.2088C103.443 27.2486 102.548 27.1127 101.779 26.8011C101.016 26.4896 100.423 26.0057 99.9989 25.3494C99.5747 24.6932 99.3659 23.8646 99.3725 22.8636V8.06818ZM116.037 27.2983C114.466 27.2983 113.114 26.9801 111.98 26.3438C110.854 25.7008 109.985 24.7926 109.375 23.6193C108.766 22.4394 108.461 21.044 108.461 19.4332C108.461 17.8622 108.766 16.4834 109.375 15.2969C109.985 14.1103 110.844 13.1856 111.951 12.5227C113.064 11.8598 114.37 11.5284 115.868 11.5284C116.876 11.5284 117.814 11.6908 118.682 12.0156C119.557 12.3338 120.319 12.8144 120.969 13.4574C121.625 14.1004 122.136 14.9091 122.5 15.8835C122.865 16.8513 123.047 17.9848 123.047 19.2841V20.4474H110.151V17.8224H119.06C119.06 17.2126 118.927 16.6723 118.662 16.2017C118.397 15.7311 118.029 15.3632 117.559 15.098C117.095 14.8262 116.554 14.6903 115.938 14.6903C115.295 14.6903 114.725 14.8395 114.228 15.1378C113.737 15.4295 113.353 15.8239 113.074 16.321C112.796 16.8116 112.653 17.3584 112.647 17.9616V20.4574C112.647 21.2131 112.786 21.866 113.064 22.4162C113.349 22.9664 113.75 23.3906 114.267 23.6889C114.784 23.9872 115.398 24.1364 116.107 24.1364C116.578 24.1364 117.008 24.0701 117.4 23.9375C117.791 23.8049 118.125 23.6061 118.404 23.3409C118.682 23.0758 118.894 22.7509 119.04 22.3665L122.958 22.625C122.759 23.5663 122.351 24.3883 121.735 25.0909C121.125 25.7869 120.336 26.3305 119.368 26.7216C118.407 27.1061 117.297 27.2983 116.037 27.2983ZM125.811 32.7273V11.7273H129.988V14.2926H130.176C130.362 13.8816 130.631 13.464 130.982 13.0398C131.34 12.6089 131.804 12.2509 132.374 11.9659C132.951 11.6742 133.667 11.5284 134.522 11.5284C135.635 11.5284 136.663 11.8201 137.604 12.4034C138.545 12.9801 139.298 13.8518 139.861 15.0185C140.425 16.1785 140.706 17.6335 140.706 19.3835C140.706 21.0871 140.431 22.5256 139.881 23.6989C139.337 24.8655 138.595 25.7505 137.654 26.3537C136.719 26.9503 135.672 27.2486 134.512 27.2486C133.69 27.2486 132.99 27.1127 132.414 26.8409C131.844 26.5691 131.376 26.2277 131.012 25.8168C130.647 25.3991 130.369 24.9782 130.176 24.554H130.047V32.7273H125.811ZM129.958 19.3636C129.958 20.2718 130.084 21.0639 130.336 21.7401C130.587 22.4162 130.952 22.9432 131.429 23.321C131.907 23.6922 132.487 23.8778 133.169 23.8778C133.859 23.8778 134.442 23.6889 134.919 23.3111C135.397 22.9266 135.758 22.3963 136.003 21.7202C136.255 21.0374 136.381 20.2519 136.381 19.3636C136.381 18.482 136.258 17.7064 136.013 17.0369C135.768 16.3674 135.407 15.8437 134.929 15.4659C134.452 15.0881 133.865 14.8991 133.169 14.8991C132.48 14.8991 131.897 15.0814 131.419 15.446C130.949 15.8106 130.587 16.3277 130.336 16.9972C130.084 17.6667 129.958 18.4555 129.958 19.3636ZM147.885 27.2884C146.911 27.2884 146.042 27.1193 145.28 26.7812C144.518 26.4366 143.915 25.9295 143.471 25.2599C143.033 24.5838 142.814 23.742 142.814 22.7344C142.814 21.8859 142.97 21.1733 143.282 20.5966C143.593 20.0199 144.017 19.5559 144.554 19.2045C145.091 18.8532 145.701 18.5881 146.384 18.4091C147.073 18.2301 147.796 18.1042 148.551 18.0312C149.44 17.9384 150.156 17.8523 150.699 17.7727C151.243 17.6866 151.637 17.5606 151.882 17.3949C152.128 17.2292 152.25 16.9839 152.25 16.6591V16.5994C152.25 15.9697 152.051 15.4825 151.654 15.1378C151.263 14.7931 150.706 14.6207 149.983 14.6207C149.221 14.6207 148.614 14.7898 148.164 15.1278C147.713 15.4593 147.415 15.8769 147.269 16.3807L143.351 16.0625C143.55 15.1345 143.941 14.3324 144.525 13.6562C145.108 12.9735 145.86 12.4498 146.782 12.0852C147.71 11.714 148.783 11.5284 150.003 11.5284C150.852 11.5284 151.664 11.6278 152.439 11.8267C153.221 12.0256 153.914 12.3338 154.517 12.7514C155.127 13.169 155.608 13.706 155.959 14.3622C156.31 15.0118 156.486 15.7907 156.486 16.6989V27H152.469V24.8821H152.35C152.105 25.3594 151.776 25.7803 151.365 26.1449C150.954 26.5028 150.461 26.7846 149.884 26.9901C149.307 27.1889 148.641 27.2884 147.885 27.2884ZM149.098 24.3651C149.721 24.3651 150.272 24.2424 150.749 23.9972C151.226 23.7453 151.601 23.4072 151.873 22.983C152.144 22.5587 152.28 22.0781 152.28 21.5412V19.9205C152.148 20.0066 151.965 20.0862 151.733 20.1591C151.508 20.2254 151.253 20.2884 150.968 20.348C150.683 20.401 150.398 20.4508 150.113 20.4972C149.828 20.5369 149.569 20.5734 149.337 20.6065C148.84 20.6795 148.406 20.7955 148.034 20.9545C147.663 21.1136 147.375 21.3291 147.169 21.6009C146.964 21.866 146.861 22.1974 146.861 22.5952C146.861 23.1719 147.07 23.6127 147.488 23.9176C147.912 24.2159 148.449 24.3651 149.098 24.3651ZM166.673 27.2983C165.109 27.2983 163.763 26.9669 162.636 26.304C161.516 25.6345 160.654 24.7064 160.051 23.5199C159.454 22.3333 159.156 20.9678 159.156 19.4233C159.156 17.8589 159.458 16.4867 160.061 15.3068C160.671 14.1203 161.536 13.1955 162.656 12.5327C163.776 11.8632 165.109 11.5284 166.653 11.5284C167.985 11.5284 169.152 11.7704 170.153 12.2543C171.154 12.7382 171.946 13.4176 172.529 14.2926C173.113 15.1676 173.434 16.1951 173.494 17.375H169.497C169.384 16.6127 169.086 15.9995 168.602 15.5355C168.125 15.0649 167.498 14.8295 166.723 14.8295C166.066 14.8295 165.493 15.0085 165.002 15.3665C164.519 15.7178 164.141 16.2315 163.869 16.9077C163.597 17.5838 163.461 18.4025 163.461 19.3636C163.461 20.3381 163.594 21.1667 163.859 21.8494C164.131 22.5322 164.512 23.0526 165.002 23.4105C165.493 23.7685 166.066 23.9474 166.723 23.9474C167.207 23.9474 167.641 23.848 168.025 23.6491C168.416 23.4503 168.738 23.1619 168.99 22.7841C169.248 22.3996 169.417 21.9389 169.497 21.402H173.494C173.428 22.5687 173.109 23.5961 172.539 24.4844C171.976 25.366 171.197 26.0554 170.203 26.5526C169.208 27.0497 168.032 27.2983 166.673 27.2983ZM183.166 27.2983C181.595 27.2983 180.243 26.9801 179.109 26.3438C177.982 25.7008 177.114 24.7926 176.504 23.6193C175.894 22.4394 175.589 21.044 175.589 19.4332C175.589 17.8622 175.894 16.4834 176.504 15.2969C177.114 14.1103 177.973 13.1856 179.08 12.5227C180.193 11.8598 181.499 11.5284 182.997 11.5284C184.005 11.5284 184.943 11.6908 185.811 12.0156C186.686 12.3338 187.448 12.8144 188.098 13.4574C188.754 14.1004 189.265 14.9091 189.629 15.8835C189.994 16.8513 190.176 17.9848 190.176 19.2841V20.4474H177.28V17.8224H186.189C186.189 17.2126 186.056 16.6723 185.791 16.2017C185.526 15.7311 185.158 15.3632 184.688 15.098C184.223 14.8262 183.683 14.6903 183.067 14.6903C182.424 14.6903 181.854 14.8395 181.357 15.1378C180.866 15.4295 180.482 15.8239 180.203 16.321C179.925 16.8116 179.782 17.3584 179.776 17.9616V20.4574C179.776 21.2131 179.915 21.866 180.193 22.4162C180.478 22.9664 180.879 23.3906 181.396 23.6889C181.913 23.9872 182.527 24.1364 183.236 24.1364C183.706 24.1364 184.137 24.0701 184.528 23.9375C184.92 23.8049 185.254 23.6061 185.533 23.3409C185.811 23.0758 186.023 22.7509 186.169 22.3665L190.087 22.625C189.888 23.5663 189.48 24.3883 188.864 25.0909C188.254 25.7869 187.465 26.3305 186.497 26.7216C185.536 27.1061 184.426 27.2983 183.166 27.2983Z" fill="#4F9CF9"/>
<defs>
<clipPath id="clip0_5_34635">
<rect width="37" height="29" fill="white" transform="translate(0.75 2.5)"/>
</clipPath>
</defs>
</svg>
