<svg width="288" height="63" viewBox="0 0 288 63" fill="none" xmlns="http://www.w3.org/2000/svg">
<g clip-path="url(#clip0_5_36818)">
<path d="M287.647 28.6819V23.5772H281.379V15.6413L281.168 15.707L275.281 17.5288L275.165 17.5644V23.5775H265.873V20.2277C265.873 18.6679 266.218 17.4743 266.897 16.6783C267.572 15.8918 268.537 15.492 269.769 15.492C270.654 15.492 271.57 15.7028 272.493 16.1187L272.724 16.2231V10.8472L272.615 10.8067C271.755 10.4939 270.584 10.3364 269.134 10.3364C267.306 10.3364 265.645 10.7388 264.196 11.5362C262.746 12.3348 261.606 13.4748 260.807 14.9242C260.011 16.3719 259.607 18.044 259.607 19.8944V23.5772H255.243V28.6819H259.607V50.1871H265.873V28.6819H275.165V42.3481C275.165 47.9764 277.79 50.8287 282.967 50.8287C283.817 50.8287 284.713 50.7279 285.627 50.5305C286.558 50.3278 287.191 50.1253 287.565 49.9091L287.647 49.8597V44.7078L287.392 44.8782C287.052 45.1074 286.629 45.2946 286.132 45.4339C285.634 45.5757 285.217 45.6468 284.895 45.6468C283.682 45.6468 282.785 45.3163 282.228 44.664C281.665 44.0058 281.379 42.8549 281.379 41.2449V28.6819H287.647ZM241.252 45.6476C238.978 45.6476 237.185 44.885 235.921 43.3828C234.65 41.873 234.006 39.7205 234.006 36.9856C234.006 34.164 234.65 31.9556 235.922 30.4191C237.186 28.8928 238.962 28.1181 241.201 28.1181C243.373 28.1181 245.102 28.858 246.341 30.3183C247.586 31.7863 248.218 33.977 248.218 36.8315C248.218 39.721 247.624 41.9407 246.452 43.4254C245.289 44.899 243.539 45.6476 241.252 45.6476ZM241.53 22.9362C237.192 22.9362 233.746 24.2219 231.289 26.7577C228.833 29.2937 227.588 32.8033 227.588 37.1897C227.588 41.3561 228.803 44.7072 231.201 47.1487C233.598 49.591 236.86 50.8281 240.896 50.8281C245.101 50.8281 248.479 49.5244 250.935 46.9535C253.39 44.3855 254.634 40.909 254.634 36.6251C254.634 32.3936 253.467 29.0174 251.163 26.5923C248.859 24.166 245.617 22.9362 241.53 22.9362ZM217.487 22.9362C214.535 22.9362 212.094 23.6996 210.229 25.2049C208.353 26.7192 207.401 28.7052 207.401 31.1085C207.401 32.3577 207.607 33.4674 208.011 34.4086C208.418 35.3528 209.047 36.1842 209.883 36.882C210.713 37.5741 211.994 38.2991 213.692 39.0368C215.119 39.6306 216.183 40.1329 216.859 40.5289C217.52 40.9169 217.989 41.3069 218.253 41.6868C218.511 42.0586 218.641 42.5674 218.641 43.1952C218.641 44.983 217.318 45.8529 214.594 45.8529C213.583 45.8529 212.431 45.6395 211.169 45.2188C209.915 44.8046 208.732 44.1979 207.661 43.4201L207.401 43.2314V49.3321L207.496 49.377C208.383 49.7909 209.501 50.1399 210.818 50.4145C212.133 50.6894 213.327 50.8292 214.365 50.8292C217.568 50.8292 220.147 50.0621 222.028 48.5478C223.922 47.0232 224.882 44.9903 224.882 42.5039C224.882 40.7102 224.365 39.1721 223.347 37.9316C222.335 36.7012 220.58 35.5716 218.132 34.5731C216.181 33.7813 214.931 33.124 214.416 32.6194C213.919 32.1319 213.666 31.4426 213.666 30.5696C213.666 29.7958 213.978 29.1758 214.617 28.6738C215.262 28.1692 216.159 27.9125 217.284 27.9125C218.328 27.9125 219.396 28.0793 220.458 28.4062C221.519 28.733 222.452 29.1708 223.23 29.7062L223.486 29.8831V24.0961L223.387 24.0534C222.669 23.742 221.723 23.4756 220.573 23.2594C219.428 23.0446 218.39 22.9362 217.487 22.9362ZM191.068 45.6476C188.795 45.6476 187.001 44.885 185.738 43.3828C184.466 41.873 183.823 39.721 183.823 36.9856C183.823 34.164 184.467 31.9556 185.739 30.4191C187.002 28.8928 188.778 28.1181 191.018 28.1181C193.19 28.1181 194.919 28.858 196.158 30.3183C197.403 31.7863 198.035 33.977 198.035 36.8315C198.035 39.721 197.44 41.9407 196.269 43.4254C195.105 44.899 193.356 45.6476 191.068 45.6476ZM191.347 22.9362C187.008 22.9362 183.562 24.2219 181.106 26.7577C178.651 29.2937 177.405 32.8033 177.405 37.1897C177.405 41.3577 178.621 44.7072 181.018 47.1487C183.415 49.591 186.677 50.8281 190.713 50.8281C194.918 50.8281 198.296 49.5244 200.752 46.9535C203.207 44.3855 204.452 40.909 204.452 36.6251C204.452 32.3936 203.284 29.0174 200.98 26.5923C198.675 24.166 195.434 22.9362 191.347 22.9362ZM167.894 28.1855V23.5772H161.705V50.1865H167.894V36.5748C167.894 34.2603 168.413 32.3588 169.437 30.9226C170.448 29.5035 171.795 28.7844 173.44 28.7844C173.997 28.7844 174.623 28.8773 175.301 29.0612C175.971 29.244 176.457 29.4426 176.744 29.6515L177.004 29.8421V23.5317L176.904 23.4882C176.327 23.2405 175.512 23.1156 174.48 23.1156C172.925 23.1156 171.533 23.621 170.341 24.6161C169.295 25.4908 168.538 26.69 167.96 28.1855H167.894ZM150.622 22.9362C147.783 22.9362 145.25 23.5519 143.096 24.7658C140.937 25.9824 139.268 27.7194 138.132 29.928C137.001 32.1314 136.427 34.7051 136.427 37.5753C136.427 40.0894 136.984 42.3966 138.084 44.4301C139.185 46.4669 140.743 48.0604 142.715 49.1656C144.685 50.2693 146.961 50.829 149.481 50.829C152.423 50.829 154.934 50.2342 156.947 49.0614L157.029 49.0142V43.2797L156.768 43.4718C155.856 44.1437 154.837 44.68 153.741 45.0664C152.647 45.4525 151.65 45.6476 150.775 45.6476C148.347 45.6476 146.397 44.8791 144.982 43.364C143.564 41.8469 142.845 39.7165 142.845 37.0359C142.845 34.3384 143.595 32.1533 145.072 30.541C146.546 28.9335 148.499 28.1181 150.877 28.1181C152.911 28.1181 154.894 28.8147 156.769 30.1906L157.029 30.3812V24.339L156.945 24.2912C156.239 23.8917 155.276 23.5618 154.082 23.3116C152.892 23.062 151.728 22.9362 150.622 22.9362ZM132.165 23.5775H125.976V50.1865H132.165V23.5775ZM129.134 12.2418C128.115 12.2418 127.227 12.5925 126.497 13.2875C125.764 13.9844 125.392 14.8619 125.392 15.8974C125.392 16.9167 125.759 17.7781 126.485 18.4565C127.207 19.1329 128.098 19.4758 129.134 19.4758C130.17 19.4758 131.064 19.1329 131.794 18.4576C132.529 17.7781 132.901 16.9169 132.901 15.8974C132.901 14.8981 132.539 14.0296 131.824 13.3156C131.111 12.6029 130.205 12.2418 129.134 12.2418ZM113.692 21.6142V50.1865H120.008V13.0564H111.266L100.155 40.6356L89.3719 13.0564H80.2742V50.1862H86.2096V21.6114H86.4134L97.7999 50.1865H102.279L113.488 21.6142H113.692Z" fill="#706D6E"/>
<path d="M29.7618 30.095H0.647217V0.649475H29.7618V30.095Z" fill="#F1511B"/>
<path d="M61.9075 30.0943H32.7935V0.648804H61.9075V30.0943Z" fill="#80CC28"/>
<path d="M29.761 62.617H0.647217V33.1717H29.761V62.617Z" fill="#00ADEF"/>
<path d="M61.9075 62.617H32.7935V33.1717H61.9075V62.617Z" fill="#FBBC09"/>
</g>
<defs>
<clipPath id="clip0_5_36818">
<rect width="287" height="62" fill="white" transform="translate(0.647217 0.632812)"/>
</clipPath>
</defs>
</svg>
